%TF.GenerationSoftware,KiCad,Pcbnew,(6.0.11)*%
%TF.CreationDate,2023-04-16T14:35:48+02:00*%
%TF.ProjectId,RACK-ESP32S3,5241434b-2d45-4535-9033-3253332e6b69,rev?*%
%TF.SameCoordinates,Original*%
%TF.FileFunction,Legend,Bot*%
%TF.FilePolarity,Positive*%
%FSLAX46Y46*%
G04 Gerber Fmt 4.6, Leading zero omitted, Abs format (unit mm)*
G04 Created by KiCad (PCBNEW (6.0.11)) date 2023-04-16 14:35:48*
%MOMM*%
%LPD*%
G01*
G04 APERTURE LIST*
%ADD10C,0.250000*%
%ADD11C,0.150000*%
%ADD12C,0.120000*%
G04 APERTURE END LIST*
D10*
X76970000Y-81153095D02*
X76922380Y-81057857D01*
X76922380Y-80915000D01*
X76970000Y-80772142D01*
X77065238Y-80676904D01*
X77160476Y-80629285D01*
X77350952Y-80581666D01*
X77493809Y-80581666D01*
X77684285Y-80629285D01*
X77779523Y-80676904D01*
X77874761Y-80772142D01*
X77922380Y-80915000D01*
X77922380Y-81010238D01*
X77874761Y-81153095D01*
X77827142Y-81200714D01*
X77493809Y-81200714D01*
X77493809Y-81010238D01*
X77922380Y-81629285D02*
X76922380Y-81629285D01*
X77922380Y-82200714D01*
X76922380Y-82200714D01*
X77922380Y-82676904D02*
X76922380Y-82676904D01*
X76922380Y-82915000D01*
X76970000Y-83057857D01*
X77065238Y-83153095D01*
X77160476Y-83200714D01*
X77350952Y-83248333D01*
X77493809Y-83248333D01*
X77684285Y-83200714D01*
X77779523Y-83153095D01*
X77874761Y-83057857D01*
X77922380Y-82915000D01*
X77922380Y-82676904D01*
X90241428Y-80629285D02*
X90241428Y-81391190D01*
X90622380Y-81010238D02*
X89860476Y-81010238D01*
X89622380Y-82343571D02*
X89622380Y-81867380D01*
X90098571Y-81819761D01*
X90050952Y-81867380D01*
X90003333Y-81962619D01*
X90003333Y-82200714D01*
X90050952Y-82295952D01*
X90098571Y-82343571D01*
X90193809Y-82391190D01*
X90431904Y-82391190D01*
X90527142Y-82343571D01*
X90574761Y-82295952D01*
X90622380Y-82200714D01*
X90622380Y-81962619D01*
X90574761Y-81867380D01*
X90527142Y-81819761D01*
X89622380Y-82676904D02*
X90622380Y-83010238D01*
X89622380Y-83343571D01*
D11*
%TO.C,J9*%
X84153333Y-76287380D02*
X84153333Y-77001666D01*
X84200952Y-77144523D01*
X84296190Y-77239761D01*
X84439047Y-77287380D01*
X84534285Y-77287380D01*
X83629523Y-77287380D02*
X83439047Y-77287380D01*
X83343809Y-77239761D01*
X83296190Y-77192142D01*
X83200952Y-77049285D01*
X83153333Y-76858809D01*
X83153333Y-76477857D01*
X83200952Y-76382619D01*
X83248571Y-76335000D01*
X83343809Y-76287380D01*
X83534285Y-76287380D01*
X83629523Y-76335000D01*
X83677142Y-76382619D01*
X83724761Y-76477857D01*
X83724761Y-76715952D01*
X83677142Y-76811190D01*
X83629523Y-76858809D01*
X83534285Y-76906428D01*
X83343809Y-76906428D01*
X83248571Y-76858809D01*
X83200952Y-76811190D01*
X83153333Y-76715952D01*
D12*
X88900000Y-85725000D02*
X78740000Y-85725000D01*
X78740000Y-85725000D02*
X78740000Y-78105000D01*
X78740000Y-84455000D02*
X88900000Y-84455000D01*
X88900000Y-78105000D02*
X88900000Y-85725000D01*
X78740000Y-78105000D02*
X88900000Y-78105000D01*
%TD*%
M02*
