M48
; DRILL file {KiCad (6.0.11)} date Sun Apr 16 14:35:54 2023
; FORMAT={-:-/ absolute / inch / decimal}
; #@! TF.CreationDate,2023-04-16T14:35:54+02:00
; #@! TF.GenerationSoftware,Kicad,Pcbnew,(6.0.11)
; #@! TF.FileFunction,Plated,1,2,PTH
FMAT,2
INCH
; #@! TA.AperFunction,Plated,PTH,ViaDrill
T1C0.0157
; #@! TA.AperFunction,Plated,PTH,ComponentDrill
T2C0.0197
; #@! TA.AperFunction,Plated,PTH,ComponentDrill
T3C0.0236
; #@! TA.AperFunction,Plated,PTH,ComponentDrill
T4C0.0300
; #@! TA.AperFunction,Plated,PTH,ComponentDrill
T5C0.0598
%
G90
G05
T1
X4.26Y-3.62
X4.414Y-3.324
X4.436Y-3.1175
X4.44Y-3.268
X4.4438Y-3.1878
X4.4632Y-3.4593
X4.475Y-3.405
X4.475Y-3.3555
X4.5617Y-3.3843
X4.644Y-3.216
X4.6454Y-3.3834
X4.6697Y-3.8602
X4.71Y-3.425
X4.718Y-3.174
X4.7375Y-3.9625
X4.789Y-3.425
X4.8073Y-3.8281
X4.8514Y-3.7686
X4.855Y-3.37
X4.92Y-4.32
X4.925Y-3.685
X4.9674Y-3.4353
X5.4434Y-3.9428
X5.7841Y-3.5968
X5.7863Y-3.6831
X5.9251Y-3.0726
X5.972Y-3.192
X6.008Y-3.404
X6.07Y-3.81
X6.118Y-3.264
X6.126Y-3.032
X6.1642Y-3.5529
X6.188Y-3.068
X6.1925Y-3.5135
X6.206Y-3.358
X6.2629Y-3.6071
X6.285Y-3.74
X6.3Y-4.08
X6.3303Y-3.3483
X6.35Y-3.106
X6.3675Y-3.4625
X6.3937Y-3.2228
X6.3963Y-3.3785
X6.4238Y-3.4906
X6.437Y-3.6661
X6.5Y-3.056
X6.5226Y-3.3484
X6.5558Y-3.7392
X6.57Y-3.165
X6.5933Y-3.8843
X6.6022Y-3.9593
X6.64Y-3.574
X6.6962Y-3.472
X6.7Y-3.74
X6.71Y-3.22
X6.92Y-3.62
X6.99Y-4.345
X7.02Y-3.4
X7.3283Y-3.6407
X7.4279Y-3.4907
X7.4492Y-3.5534
X7.5653Y-3.4556
X7.6076Y-3.0893
X7.744Y-3.398
X7.748Y-3.6
X7.7563Y-3.3083
X7.8009Y-3.0854
X7.805Y-3.715
X7.815Y-3.62
X7.9141Y-3.3526
X7.9474Y-3.503
X7.98Y-3.378
X8.0111Y-3.5641
X8.05Y-3.138
X8.056Y-3.282
X8.09Y-3.4
X8.14Y-4.08
X8.154Y-3.355
X8.171Y-3.4491
X8.216Y-3.186
X8.248Y-3.094
X8.27Y-3.44
X8.284Y-3.174
X8.3181Y-3.8177
X8.328Y-3.086
X8.3557Y-3.3606
X8.3899Y-3.4734
X8.4061Y-3.9445
X8.4241Y-3.8296
X8.488Y-3.729
X8.489Y-3.596
X8.546Y-3.6665
X8.56Y-4.16
X9.1899Y-3.4852
X9.2584Y-3.6352
X9.265Y-3.5942
X9.4605Y-3.6626
X9.485Y-4.365
X9.542Y-3.6587
X9.5422Y-3.5481
X9.586Y-3.4
X9.6206Y-3.266
X9.624Y-3.03
X9.7Y-3.58
X9.7574Y-3.3019
X9.844Y-3.44
X9.8917Y-3.5092
X9.898Y-3.172
X9.9332Y-3.4795
X9.9342Y-3.0323
X9.9416Y-3.3423
X9.9975Y-3.1542
X10.026Y-3.8982
X10.0577Y-3.7497
X10.1033Y-3.4357
X10.1128Y-3.0508
X10.1356Y-3.2364
X10.16Y-4.1
X10.185Y-3.39
X10.2493Y-3.0524
X10.258Y-3.178
X10.2945Y-3.3423
X10.3Y-3.62
X10.3408Y-3.9022
X10.3428Y-3.8272
X10.3459Y-3.2543
X10.4Y-3.3285
X10.402Y-3.616
X10.495Y-3.295
X10.597Y-3.773
X10.618Y-3.503
X10.6189Y-3.9427
X10.9335Y-3.5882
X10.98Y-3.42
X11.1327Y-3.6628
X11.269Y-3.127
X11.3023Y-3.33
X11.3678Y-3.6395
X11.3693Y-3.6001
X11.4Y-3.42
X11.4019Y-3.0484
X11.42Y-3.94
X11.54Y-3.53
X11.6208Y-3.7075
X11.7131Y-3.356
X11.7154Y-3.5167
X11.765Y-3.44
X11.825Y-3.64
X11.898Y-3.112
X11.9168Y-3.359
X11.98Y-4.1
X11.9848Y-3.2408
X11.9871Y-3.4426
X12.032Y-3.034
X12.0426Y-3.9404
X12.0734Y-3.3574
X12.0761Y-3.4825
X12.0989Y-3.875
X12.106Y-4.328
X12.1892Y-3.7899
X12.1898Y-3.3824
X12.3897Y-3.3726
X12.9174Y-3.488
X13.078Y-3.5771
X13.0784Y-3.638
X13.1488Y-3.0935
X13.18Y-4.325
X13.2721Y-3.356
X13.33Y-3.23
X13.345Y-3.715
X13.35Y-3.49
X13.4306Y-3.5549
X13.522Y-3.242
X13.5652Y-3.5874
X13.682Y-3.376
X13.7358Y-3.0522
X13.7472Y-3.408
X13.77Y-3.166
X13.771Y-3.4554
X13.7782Y-3.7795
X13.8174Y-3.55
X13.8211Y-3.0872
X13.892Y-3.166
X13.8945Y-3.7683
X13.8988Y-3.8093
X13.914Y-3.4
X13.93Y-3.67
X13.946Y-4.344
X13.99Y-3.54
X13.995Y-3.45
X14.0283Y-3.3965
X14.0313Y-3.3556
X14.08Y-3.3543
X14.0884Y-3.5223
X14.1077Y-3.6845
X14.1199Y-3.445
X14.1819Y-3.2881
X14.255Y-3.4595
X14.34Y-3.78
X14.3627Y-3.3547
X14.51Y-4.345
X14.6Y-3.42
X14.7659Y-3.4747
X14.8083Y-3.5512
X14.8085Y-3.6326
X14.948Y-3.46
X14.9553Y-3.641
X15.0003Y-3.0836
X15.0426Y-3.6875
X15.08Y-3.44
X15.1359Y-3.3031
X15.26Y-4.0
X15.28Y-3.6
X15.32Y-3.49
X15.32Y-3.635
X15.38Y-3.485
X15.3891Y-3.5809
X15.516Y-3.3574
X15.536Y-3.8467
X15.5883Y-3.6172
X15.5909Y-3.4556
X15.6252Y-3.2405
X15.6428Y-3.456
X15.665Y-3.4
X15.6772Y-3.6917
X15.678Y-3.056
X15.7148Y-3.826
X15.74Y-3.4
X15.7772Y-3.8213
X15.788Y-3.032
X15.818Y-4.33
X15.825Y-3.575
X15.8487Y-3.4
X15.912Y-3.05
X15.9257Y-3.6465
X16.078Y-3.294
X16.14Y-3.82
X16.31Y-4.365
X16.4076Y-3.9178
X16.415Y-3.4843
X16.56Y-3.46
X16.6351Y-3.5867
X16.7443Y-3.636
X16.82Y-3.42
X16.8853Y-3.5577
X16.9016Y-3.356
X16.9217Y-3.6425
X16.9413Y-3.1039
X16.9413Y-3.4363
X16.9466Y-3.534
X17.0829Y-3.1689
X17.19Y-3.725
X17.206Y-3.336
X17.2713Y-3.586
X17.3543Y-3.827
X17.3793Y-3.6855
X17.42Y-3.204
X17.4438Y-3.4651
X17.4704Y-3.3574
X17.5111Y-3.4425
X17.531Y-3.924
X17.54Y-4.1
X17.5589Y-3.1689
X17.64Y-3.78
X17.6637Y-3.3425
X17.6674Y-3.5035
X17.6866Y-3.9679
X17.7211Y-3.6425
X17.8809Y-3.5013
X17.8864Y-3.9281
X17.895Y-3.38
X18.0Y-3.82
X18.36Y-3.44
X18.3628Y-3.646
X18.3746Y-3.6066
X18.5824Y-3.565
X18.5996Y-3.6425
X18.6041Y-3.5159
X18.6208Y-3.0868
X18.6296Y-3.356
T4
X4.55Y-4.275
X4.55Y-4.375
X4.55Y-4.475
X4.55Y-4.575
X6.375Y-4.275
X6.375Y-4.375
X6.375Y-4.475
X6.375Y-4.575
X8.2054Y-4.275
X8.2054Y-4.375
X8.2054Y-4.475
X8.2054Y-4.575
X10.0804Y-4.275
X10.0804Y-4.375
X10.0804Y-4.475
X10.0804Y-4.575
X11.9054Y-4.275
X11.9054Y-4.375
X11.9054Y-4.475
X11.9054Y-4.575
X13.7554Y-4.275
X13.7554Y-4.375
X13.7554Y-4.475
X13.7554Y-4.575
X15.5804Y-4.275
X15.5804Y-4.375
X15.5804Y-4.475
X15.5804Y-4.575
X17.4054Y-4.275
X17.4054Y-4.375
X17.4054Y-4.475
X17.4054Y-4.575
T5
X3.2Y-3.225
X3.4Y-3.225
T2
G00X4.5049Y-3.2846
M15
G01X4.5049Y-3.2373
M16
G05
G00X4.8451Y-3.2846
M15
G01X4.8451Y-3.2373
M16
G05
G00X6.264Y-3.2797
M15
G01X6.264Y-3.2325
M16
G05
G00X6.6041Y-3.2797
M15
G01X6.6041Y-3.2325
M16
G05
G00X8.0996Y-3.2868
M15
G01X8.0996Y-3.2396
M16
G05
G00X8.4398Y-3.2868
M15
G01X8.4398Y-3.2396
M16
G05
G00X9.9549Y-3.2856
M15
G01X9.9549Y-3.2384
M16
G05
G00X10.2951Y-3.2856
M15
G01X10.2951Y-3.2384
M16
G05
G00X11.8049Y-3.2896
M15
G01X11.8049Y-3.2423
M16
G05
G00X12.1451Y-3.2896
M15
G01X12.1451Y-3.2423
M16
G05
G00X13.6299Y-3.2943
M15
G01X13.6299Y-3.247
M16
G05
G00X13.9701Y-3.2943
M15
G01X13.9701Y-3.247
M16
G05
G00X15.4649Y-3.2896
M15
G01X15.4649Y-3.2423
M16
G05
G00X15.8051Y-3.2896
M15
G01X15.8051Y-3.2423
M16
G05
G00X17.2699Y-3.2896
M15
G01X17.2699Y-3.2423
M16
G05
G00X17.6101Y-3.2896
M15
G01X17.6101Y-3.2423
M16
G05
T3
G00X4.5049Y-3.1082
M15
G01X4.5049Y-3.0846
M16
G05
G00X4.8451Y-3.1082
M15
G01X4.8451Y-3.0846
M16
G05
G00X6.264Y-3.1033
M15
G01X6.264Y-3.0797
M16
G05
G00X6.6041Y-3.1033
M15
G01X6.6041Y-3.0797
M16
G05
G00X8.0996Y-3.1104
M15
G01X8.0996Y-3.0868
M16
G05
G00X8.4398Y-3.1104
M15
G01X8.4398Y-3.0868
M16
G05
G00X9.9549Y-3.1093
M15
G01X9.9549Y-3.0856
M16
G05
G00X10.2951Y-3.1093
M15
G01X10.2951Y-3.0856
M16
G05
G00X11.8049Y-3.1132
M15
G01X11.8049Y-3.0896
M16
G05
G00X12.1451Y-3.1132
M15
G01X12.1451Y-3.0896
M16
G05
G00X13.6299Y-3.1179
M15
G01X13.6299Y-3.0943
M16
G05
G00X13.9701Y-3.1179
M15
G01X13.9701Y-3.0943
M16
G05
G00X15.4649Y-3.1132
M15
G01X15.4649Y-3.0896
M16
G05
G00X15.8051Y-3.1132
M15
G01X15.8051Y-3.0896
M16
G05
G00X17.2699Y-3.1132
M15
G01X17.2699Y-3.0896
M16
G05
G00X17.6101Y-3.1132
M15
G01X17.6101Y-3.0896
M16
G05
T0
M30
