%TF.GenerationSoftware,KiCad,Pcbnew,(6.0.11)*%
%TF.CreationDate,2023-04-16T14:35:48+02:00*%
%TF.ProjectId,RACK-ESP32S3,5241434b-2d45-4535-9033-3253332e6b69,rev?*%
%TF.SameCoordinates,Original*%
%TF.FileFunction,Profile,NP*%
%FSLAX46Y46*%
G04 Gerber Fmt 4.6, Leading zero omitted, Abs format (unit mm)*
G04 Created by KiCad (PCBNEW (6.0.11)) date 2023-04-16 14:35:48*
%MOMM*%
%LPD*%
G01*
G04 APERTURE LIST*
%TA.AperFunction,Profile*%
%ADD10C,0.250000*%
%TD*%
G04 APERTURE END LIST*
D10*
X65734688Y-98310275D02*
G75*
G03*
X65734688Y-98310275I-1750000J0D01*
G01*
X94484688Y-107810288D02*
G75*
G03*
X97984688Y-104310275I12J3499988D01*
G01*
X44125000Y-98310275D02*
G75*
G03*
X44125000Y-98310275I-3000000J0D01*
G01*
X75813116Y-88810275D02*
X92156261Y-88810275D01*
X97984688Y-94638702D02*
X97984688Y-104310275D01*
X509245000Y-98310275D02*
G75*
G03*
X509245000Y-98310275I-3000000J0D01*
G01*
X509245000Y-114255556D02*
G75*
G03*
X509245000Y-114255556I-3000000J0D01*
G01*
X514985000Y-120610275D02*
X32385000Y-120610275D01*
X75813116Y-88810275D02*
X69984688Y-94638702D01*
X44125000Y-82364994D02*
G75*
G03*
X44125000Y-82364994I-3000000J0D01*
G01*
X495589032Y-80010000D02*
G75*
G03*
X495589032Y-80010000I-1500000J0D01*
G01*
X514985000Y-76010275D02*
X514985000Y-120610275D01*
X105734688Y-98310275D02*
G75*
G03*
X105734688Y-98310275I-1750000J0D01*
G01*
X54780968Y-116510550D02*
G75*
G03*
X54780968Y-116510550I-1500000J0D01*
G01*
X509245000Y-82364994D02*
G75*
G03*
X509245000Y-82364994I-3000000J0D01*
G01*
X94484688Y-107810275D02*
X73484688Y-107810275D01*
X69984725Y-104310275D02*
G75*
G03*
X73484688Y-107810275I3499975J-25D01*
G01*
X32385000Y-76010275D02*
X514985000Y-76010275D01*
X495589032Y-116510550D02*
G75*
G03*
X495589032Y-116510550I-1500000J0D01*
G01*
X32385000Y-120610275D02*
X32385000Y-76010275D01*
X92156261Y-88810275D02*
X97984688Y-94638702D01*
X44125000Y-114255556D02*
G75*
G03*
X44125000Y-114255556I-3000000J0D01*
G01*
X54780968Y-80010000D02*
G75*
G03*
X54780968Y-80010000I-1500000J0D01*
G01*
X69984688Y-94638702D02*
X69984688Y-104310275D01*
M02*
