%TF.GenerationSoftware,KiCad,Pcbnew,(6.0.11)*%
%TF.CreationDate,2023-04-16T14:35:48+02:00*%
%TF.ProjectId,RACK-ESP32S3,5241434b-2d45-4535-9033-3253332e6b69,rev?*%
%TF.SameCoordinates,Original*%
%TF.FileFunction,Soldermask,Bot*%
%TF.FilePolarity,Negative*%
%FSLAX46Y46*%
G04 Gerber Fmt 4.6, Leading zero omitted, Abs format (unit mm)*
G04 Created by KiCad (PCBNEW (6.0.11)) date 2023-04-16 14:35:48*
%MOMM*%
%LPD*%
G01*
G04 APERTURE LIST*
%ADD10C,1.524000*%
%ADD11C,0.650000*%
%ADD12O,0.900000X2.100000*%
%ADD13O,1.000000X1.600000*%
%ADD14C,3.500000*%
%ADD15R,3.000000X3.000000*%
%ADD16C,3.000000*%
G04 APERTURE END LIST*
D10*
%TO.C,U6*%
X349387500Y-108585000D03*
X349387500Y-111125000D03*
X349387500Y-113665000D03*
X349387500Y-116205000D03*
%TD*%
D11*
%TO.C,J4*%
X301275000Y-82455000D03*
X307055000Y-82455000D03*
D12*
X308485000Y-82955000D03*
D13*
X308485000Y-78775000D03*
X299845000Y-78775000D03*
D12*
X299845000Y-82955000D03*
%TD*%
D11*
%TO.C,J7*%
X400019000Y-82455000D03*
X394239000Y-82455000D03*
D12*
X392809000Y-82955000D03*
D13*
X401449000Y-78775000D03*
X392809000Y-78775000D03*
D12*
X401449000Y-82955000D03*
%TD*%
D11*
%TO.C,J6*%
X347630000Y-82575000D03*
X353410000Y-82575000D03*
D13*
X354840000Y-78895000D03*
D12*
X346200000Y-83075000D03*
D13*
X346200000Y-78895000D03*
D12*
X354840000Y-83075000D03*
%TD*%
D10*
%TO.C,U8*%
X442097500Y-108585000D03*
X442097500Y-111125000D03*
X442097500Y-113665000D03*
X442097500Y-116205000D03*
%TD*%
%TO.C,U3*%
X208417500Y-108585000D03*
X208417500Y-111125000D03*
X208417500Y-113665000D03*
X208417500Y-116205000D03*
%TD*%
%TO.C,U4*%
X256042500Y-108585000D03*
X256042500Y-111125000D03*
X256042500Y-113665000D03*
X256042500Y-116205000D03*
%TD*%
D11*
%TO.C,J1*%
X160535000Y-82205000D03*
X166315000Y-82205000D03*
D12*
X167745000Y-82705000D03*
X159105000Y-82705000D03*
D13*
X159105000Y-78525000D03*
X167745000Y-78525000D03*
%TD*%
D10*
%TO.C,U1*%
X115570000Y-108585000D03*
X115570000Y-111125000D03*
X115570000Y-113665000D03*
X115570000Y-116205000D03*
%TD*%
D11*
%TO.C,J5*%
X115855000Y-82328000D03*
X121635000Y-82328000D03*
D12*
X123065000Y-82828000D03*
X114425000Y-82828000D03*
D13*
X123065000Y-78648000D03*
X114425000Y-78648000D03*
%TD*%
D11*
%TO.C,J8*%
X445866000Y-82455000D03*
X440086000Y-82455000D03*
D13*
X447296000Y-78775000D03*
D12*
X438656000Y-82955000D03*
X447296000Y-82955000D03*
D13*
X438656000Y-78775000D03*
%TD*%
D11*
%TO.C,J3*%
X260065000Y-82355000D03*
X254285000Y-82355000D03*
D13*
X261495000Y-78675000D03*
D12*
X252855000Y-82855000D03*
X261495000Y-82855000D03*
D13*
X252855000Y-78675000D03*
%TD*%
D14*
%TO.C,H1*%
X104140000Y-81280000D03*
%TD*%
%TO.C,H2*%
X104140000Y-114300000D03*
%TD*%
%TO.C,H3*%
X480060000Y-97155000D03*
%TD*%
D11*
%TO.C,J2*%
X207160000Y-82385000D03*
X212940000Y-82385000D03*
D13*
X205730000Y-78705000D03*
X214370000Y-78705000D03*
D12*
X214370000Y-82885000D03*
X205730000Y-82885000D03*
%TD*%
D10*
%TO.C,U2*%
X161925000Y-108585000D03*
X161925000Y-111125000D03*
X161925000Y-113665000D03*
X161925000Y-116205000D03*
%TD*%
%TO.C,U5*%
X302397500Y-108585000D03*
X302397500Y-111125000D03*
X302397500Y-113665000D03*
X302397500Y-116205000D03*
%TD*%
%TO.C,U7*%
X395742500Y-108585000D03*
X395742500Y-111125000D03*
X395742500Y-113665000D03*
X395742500Y-116205000D03*
%TD*%
D15*
%TO.C,J9*%
X86360000Y-81915000D03*
D16*
X81280000Y-81915000D03*
%TD*%
M02*
